<svg width="184" height="185" viewBox="0 0 184 185" fill="none" xmlns="http://www.w3.org/2000/svg">
<circle cx="92" cy="92" r="92" fill="#194D9D"/>
<g clip-path="url(#clip0_110_15)">
<path d="M19.7024 117.551C19.9111 117.256 19.5044 117.112 19.3386 116.926C18.7607 116.277 18.4182 115.564 18.2345 114.749C17.9777 113.604 17.9848 112.441 17.8225 111.29C17.7155 110.53 17.4443 109.853 16.8379 109.205C16.2119 108.317 15.1417 107.912 13.9467 107.684C13.6987 107.637 13.4276 107.516 13.2029 107.7C12.9193 107.933 13.1208 108.194 13.2403 108.411C14.0893 109.974 14.1981 111.642 14.1143 113.327C13.9734 116.181 15.6143 117.717 18.8695 117.711C19.1584 117.711 19.5348 117.786 19.7024 117.551Z" fill="#E41720"/>
<path d="M58.0898 104.598C58.2967 104.905 58.566 104.719 58.6302 104.455C58.9263 103.244 59.2134 102.024 58.1861 100.774C57.6314 100.209 56.7342 99.8536 55.7496 99.611C54.1069 99.2079 52.4089 98.9189 51.0783 97.8844C50.8696 97.7221 50.6306 97.4617 50.3131 97.6151C50.0242 97.7542 50.0884 98.0771 50.0617 98.3268C49.894 99.8607 50.9606 101.191 52.8298 101.928C54.6866 102.659 56.9126 102.855 58.0915 104.598H58.0898Z" fill="#E41720"/>
<path d="M30.569 93.4272C31.2807 93.8838 32.0726 94.253 32.5685 94.9254C32.8485 95.1145 32.8628 95.6282 33.2926 95.5622C33.7546 95.4891 33.7635 95.0128 33.842 94.6864C34.106 93.6091 33.8652 92.662 32.902 91.8737C31.9727 91.1156 30.8116 90.6697 29.7771 90.0561C29.4864 89.8849 29.1724 89.6013 28.7818 89.8528C28.4483 90.0686 28.4751 90.4271 28.484 90.7464C28.5143 92.027 29.5131 92.7494 30.569 93.4254V93.4272Z" fill="#E41720"/>
<path d="M159.912 34.8885C158.464 35.4896 156.987 36.0229 155.362 36.1335C153.659 36.2494 153.207 35.8677 152.835 34.4337C151.982 31.1447 153.427 28.578 155.942 26.2736C158.055 24.3348 160.308 22.5083 162.174 20.3662C165.17 16.922 166.183 13.0319 165.771 8.77976C165.532 6.31479 164.863 3.92295 164.025 1.56499C163.841 1.05131 163.538 0.567944 163.288 0.0703125C163.183 0.0703125 163.08 0.0738798 162.976 0.0738798C162.75 1.18686 162.554 2.30698 162.293 3.41461C161.537 6.63763 160.133 9.56456 157.32 11.8851C155.376 13.4903 152.949 14.3019 150.527 15.1223C147.323 16.2068 144.583 17.862 142.102 19.8614C141.778 18.5291 141.289 17.1967 140.567 15.8643C140.415 15.6182 140.253 15.3988 140.096 15.1669C141.583 13.0212 143.308 11.0111 145.242 9.11865C145.404 8.95991 145.702 8.87251 145.636 8.49973C144.995 8.52471 144.455 8.79403 143.909 9.02769C141.665 9.9855 139.543 11.0842 137.49 12.2668C136.211 11.2215 134.729 10.4564 132.999 9.9088C132.974 9.65909 133.033 9.34339 132.747 9.20427C132.43 9.05088 132.191 9.31307 131.982 9.47538C131.93 9.5164 131.868 9.53959 131.814 9.57883C131.479 9.49678 131.149 9.40938 130.796 9.33982C126.788 8.68702 122.527 8.03421 118.519 8.03421C101.484 8.25181 87.1364 6.92836 70.101 8.01459C64.5896 8.23219 59.0782 8.885 54.0679 11.061C51.8134 11.9314 49.8086 13.0194 48.808 14.9761C47.8056 16.9345 46.8032 18.8929 46.302 20.8496C42.2942 38.9052 42.0427 58.2665 44.5487 76.5398C44.8002 78.4982 45.2996 80.6724 46.302 82.6308C47.5541 84.8069 50.0601 86.5477 52.3146 88.0709C64.5913 96.7714 76.8663 105.691 89.143 114.394C92.3999 116.568 95.6568 118.962 97.6598 122.224C101.168 127.444 100.415 133.971 99.6646 140.279C99.4131 141.367 99.1634 142.891 98.161 143.542C97.4101 143.977 96.4077 144.195 95.6568 144.412C93.9035 144.63 80.8759 147.457 80.8759 143.542C78.6214 139.409 79.6238 134.187 79.6238 129.836C79.3741 127.662 79.1226 125.268 77.3693 123.528C77.289 123.46 77.198 123.408 77.116 123.344C74.0588 117.363 69.3447 112.448 63.6977 108.174C63.473 108.003 63.2625 107.703 62.8594 107.894C62.7453 108.221 62.9558 108.474 63.0574 108.741C63.7299 110.514 64.6823 112.212 64.957 114.094C65.0176 114.504 65.2228 114.961 64.7126 115.253C64.2204 115.533 63.7798 115.236 63.3606 115.045C62.3957 114.604 61.6198 113.957 60.835 113.315C58.4806 111.383 56.6078 109.082 54.3926 107.045C50.0138 103.019 44.8751 99.8839 39.1533 97.4421C38.6075 97.2102 38.067 96.9409 37.4267 96.9141C37.3625 97.2869 37.6586 97.3743 37.8209 97.533C40.9422 100.59 43.6088 103.902 45.4102 107.703C45.8062 108.536 46.2289 109.376 46.1486 110.313C46.1165 110.686 46.2039 111.165 45.7491 111.37C45.2533 111.593 44.8056 111.306 44.4399 111.03C43.5214 110.327 42.5957 109.628 41.7252 108.882C39.0516 106.599 36.0658 104.734 32.536 103.539C30.1138 102.72 27.6863 101.906 25.7422 100.303C22.9294 97.9807 21.5257 95.0556 20.7694 91.8326C20.509 90.7249 20.3128 89.6048 20.0863 88.4918C19.981 88.4901 19.8776 88.4883 19.7741 88.4865C19.5262 88.9841 19.2212 89.4675 19.0375 89.9812C18.1992 92.3409 17.5303 94.731 17.2913 97.1959C16.8793 101.448 17.8924 105.338 20.8889 108.782C22.7546 110.926 25.0073 112.753 27.1209 114.692C29.634 116.996 31.0806 119.561 30.228 122.852C29.8552 124.286 29.4039 124.667 27.7006 124.551C26.0775 124.441 24.5989 123.908 23.1505 123.306C21.4668 122.609 20.0667 121.559 18.5773 120.469C18.3062 120.94 18.5042 121.207 18.5916 121.475C20.1112 126.148 22.619 130.407 25.826 134.349C27.8879 136.882 30.4545 139.04 33.039 141.171C34.3963 142.291 35.7037 143.456 36.9416 144.676C36.9255 145.138 36.9202 145.596 36.9059 146.058C36.8577 146.057 36.8114 146.055 36.765 146.055C35.85 146.039 35.0117 145.782 34.1841 145.481C31.2803 144.423 29.3219 142.472 27.5846 140.303C27.3492 140.007 27.1851 139.627 26.7321 139.505C26.5234 139.75 26.6536 139.932 26.7018 140.112C27.9253 144.681 30.9575 148.315 35.0652 151.133C35.6288 151.52 36.2085 151.853 36.7846 152.196C36.7543 156.229 36.8114 160.244 37.0325 164.21C37.284 167.692 37.5337 171.172 39.5385 173.783C40.7906 175.524 42.5439 176.83 44.299 177.918C46.8032 179.441 49.5589 181.18 52.5661 182.05C55.5715 182.921 58.5787 182.485 61.8356 182.921C64.8411 183.138 67.8482 183.356 71.1052 183.573C76.8681 184.009 82.6292 184.661 88.3921 184.661C92.9011 184.879 97.4119 184.444 101.921 184.226C108.936 184.01 115.951 183.791 122.964 183.573C128.476 183.356 133.486 182.27 137.745 179.223C139.75 177.918 141.002 176.394 141.253 174.438C142.006 170.086 143.007 165.953 143.007 161.82C143.508 152.248 143.508 142.677 143.508 132.888C143.256 125.927 143.007 118.748 142.506 111.568C142.004 108.74 141.755 105.695 140 103.084C138.997 101.343 137.495 99.8214 135.74 98.2982C122.463 86.7689 105.176 79.5898 91.146 68.7132C88.6418 66.7548 86.1358 64.5788 84.8837 61.7517C83.3801 59.1405 82.8789 55.8782 84.3825 53.267C86.637 49.3501 94.4029 50.4382 98.9137 50.2206C99.4149 50.2206 100.168 50.2206 100.918 50.6558C101.42 50.8734 101.669 51.3086 101.921 51.7438C102.923 54.1356 102.422 56.7468 102.422 59.3563C102.422 61.7499 103.173 64.577 105.679 65.8826C106.931 66.5354 108.684 66.5354 110.439 66.753C116.452 66.753 120.026 66.9884 126.039 66.9884C126.44 67.0098 126.842 67.0277 127.241 67.0437C134.888 68.492 141.871 66.9242 147.999 62.7202C152.105 59.9021 155.137 56.2688 156.363 51.6992C156.411 51.519 156.541 51.3353 156.332 51.0927C155.879 51.2123 155.715 51.5939 155.48 51.8882C153.744 54.0589 151.784 56.0102 148.88 57.0679C148.053 57.3693 147.214 57.6262 146.299 57.6422C146 57.6476 145.675 57.6975 145.484 57.4371C145.251 57.1232 145.497 56.8735 145.711 56.6577C147.064 55.2878 148.52 54.0018 150.027 52.7587C152.612 50.6272 155.18 48.469 157.24 45.9363C160.447 41.9963 162.957 37.7352 164.474 33.0621C164.562 32.7927 164.76 32.527 164.489 32.0561C162.999 33.1459 161.599 34.1965 159.916 34.8938L159.912 34.8885Z" fill="#E41720"/>
<path d="M169.856 19.2854C169.633 19.1016 169.361 19.2211 169.113 19.2711C167.918 19.4994 166.847 19.9043 166.221 20.7925C165.613 21.44 165.342 22.1195 165.237 22.8776C165.075 24.0262 165.083 25.1892 164.825 26.336C164.641 27.1494 164.299 27.8664 163.721 28.5138C163.555 28.6993 163.15 28.8438 163.357 29.1381C163.525 29.3736 163.901 29.3004 164.19 29.3004C167.445 29.3058 169.086 27.7683 168.945 24.9163C168.861 23.2307 168.97 21.5613 169.819 20.0006C169.938 19.783 170.138 19.5226 169.856 19.2889V19.2854Z" fill="#E41720"/>
<path d="M149.769 7.14779C150.199 7.21556 150.213 6.70188 150.493 6.51103C150.989 5.84039 151.781 5.46939 152.492 5.01457C153.548 4.33857 154.547 3.61442 154.577 2.33556C154.585 2.01451 154.613 1.656 154.28 1.44196C153.889 1.18869 153.575 1.47229 153.284 1.6453C152.25 2.25708 151.089 2.70299 150.159 3.46281C149.194 4.24939 148.954 5.19828 149.218 6.27381C149.298 6.60021 149.305 7.07823 149.769 7.14957V7.14779Z" fill="#E41720"/>
</g>
<defs>
<clipPath id="clip0_110_15">
<rect width="156.94" height="184.646" fill="white" transform="translate(13.0605 0.0685425)"/>
</clipPath>
</defs>
</svg>
